# xmcd
#
# Track frame offsets:
#	193
#	19260
#	36528
#	55265
#	74230
#	92968
#	112178
#	132225
#	148693
#	167615
#	179498
#	195405
#	215943
#	235415
#	248680
#
# Disc length: 3544 seconds
#
# Revision: 0
# Processed by: cddbd v1.5.2PL0 Copyright (c) Steve Scherf et al.
# Submitted via: EasyCDDAExtractor 16.0.8.2
#
DISCID=f10dd60f
DTITLE=Συλλογικός δίσκος - Αυθεντικά ρεμπέτικα 2
DYEAR=1900
DGENRE=Ρεμπέτικη
TTITLE0=Άνευ ερμηνευτού - Πολίτικο χασάπικο [οργανικό]
TTITLE1=Παπαγκίκα Μαρίκα - Τι σε μέλλει εσένανε
TTITLE2=Κατσαρός Γιώργος - Τώρα τα παίρνω
TTITLE3=Μπέζος Κώστας ή Κωστής Α. - Η φυλακή είναι σχολείο
TTITLE4=Μπέζος Κώστας ή Κωστής Α. - Κάηκε κι ένα σχολείο
TTITLE5=Άνευ ερμηνευτού - Το μυστήριο ζεϊμπέκικο [οργανικό]
TTITLE6=Κατσαρός Γιώργος - Ο γιατρός
TTITLE7=Παπαγκίκα Μαρίκα - Αθήνα και Πειραία μου
TTITLE8=Νικολάου Τάκης - Αραμπάς περνά
TTITLE9=Μέλκον Μάρκος - Ήθελα να 'ρθώ το βράδυ
TTITLE10=Παπαγκίκα Μαρίκα - Ντερβίσης
TTITLE11=Άνευ ερμηνευτού - Μουρμούρικο ζεϊμπέκικο [οργανικό]
TTITLE12=Καλούμενος Σταύρος - Ο βαρυποινίτης
TTITLE13=Ψωμαθιανός Γιάγκος - Πήραν τα φρύγανα φωτιά
TTITLE14=Παπαγκίκα Μαρίκα - Αγια Σοφιά (Σαν τα μάρμαρα Πόλης)
EXTD=
EXTT0=
EXTT1=
EXTT2=
EXTT3=
EXTT4=
EXTT5=
EXTT6=
EXTT7=
EXTT8=
EXTT9=
EXTT10=
EXTT11=
EXTT12=
EXTT13=
EXTT14=
PLAYORDER=
